<svg id="SvgjsSvg1036" width="36" height="36" xmlns="http://www.w3.org/2000/svg" version="1.1" xmlns:xlink="http://www.w3.org/1999/xlink" xmlns:svgjs="http://svgjs.com/svgjs"><defs id="SvgjsDefs1037"></defs><g id="SvgjsG1038" transform="matrix(0.9167,0,0,0.9167,11.995088107252116,11.990282915496834)"><svg xmlns="http://www.w3.org/2000/svg" xmlns:xlink="http://www.w3.org/1999/xlink" data-name="Layer 1" viewBox="0 0 512 512" width="288" height="288"><defs><linearGradient id="a" x1="256" x2="256" y1="9.879" y2="502.257" gradientUnits="userSpaceOnUse"><stop offset="0" stop-color="#00efd1" class="stopColor00efd1 svgShape"></stop><stop offset="1" stop-color="#00acea" class="stopColor00acea svgShape"></stop></linearGradient><linearGradient id="b" x1="371.419" x2="371.419" y1="9.879" y2="502.257" xlink:href="#a"></linearGradient></defs><g data-name="&amp;lt;Group&amp;gt;" fill="#f95700" class="color000 svgShape"><path fill="url(#a)" d="M371.962,156.09a138.134,138.134,0,0,0-18.219,1.209,104.929,104.929,0,0,0-42.64-8.937c-2.444,0-4.9.086-7.346.256A124.964,124.964,0,0,0,67.914,198.13a93.845,93.845,0,0,0-44.7,31.177A96.758,96.758,0,0,0,2.61,288.664l-.1,3.173c0,.161-.008.322-.011.545A73.29,73.29,0,0,0,76.116,366h179.2a137.411,137.411,0,0,0,116.643,64.956c75.839,0,137.538-61.594,137.538-137.433S447.8,156.09,371.962,156.09ZM76.116,346A53.291,53.291,0,0,1,22.5,292.4l.1-3.305c0-.1,0-.17,0-.268a76.636,76.636,0,0,1,16.311-47.145,73.48,73.48,0,0,1,41-26.141,10.023,10.023,0,0,0,7.758-9.766,104.962,104.962,0,0,1,200.954-42.433,10,10,0,0,0,10.535,5.858,85.974,85.974,0,0,1,11.932-.834c1.3,0,2.6.036,3.888.093a137.422,137.422,0,0,0-80.567,124.962A134.761,134.761,0,0,0,244.966,346Zm295.846,65.166A117.538,117.538,0,1,1,489.5,293.628,117.671,117.671,0,0,1,371.962,411.166Z" data-name="&amp;lt;Compound Path&amp;gt;"></path><path fill="url(#b)" d="M402.439,295.69,381,316.228v-68.82a10,10,0,0,0-20,0v68.82L340.061,295.69a9.85,9.85,0,0,0-14.016.221,10,10,0,0,0,.283,14.141l38.181,36.975a10.027,10.027,0,0,0,13.943,0l38.153-36.975a10,10,0,0,0,.1-14.141A10.149,10.149,0,0,0,402.439,295.69Z" data-name="&amp;lt;Path&amp;gt;"></path></g></svg></g></svg>