<svg id="SvgjsSvg1011" width="288" height="288" xmlns="http://www.w3.org/2000/svg" version="1.1" xmlns:xlink="http://www.w3.org/1999/xlink" xmlns:svgjs="http://svgjs.com/svgjs"><defs id="SvgjsDefs1012"></defs><g id="SvgjsG1013" transform="matrix(0.9167,0,0,0.9167,11.995200000000011,11.995200000000011)"><svg xmlns="http://www.w3.org/2000/svg" width="288" height="288" viewBox="0 0 38 48"><g fill="#f95700" fill-rule="evenodd" class="color000 svgShape"><path d="M25.086 41.592l-19.111.01-.002-4.048 19.11-.01.003 4.048zM38 18.671L34.73 0 30.71.692l3.269 18.67L38 18.672zM25.546 32.355l-19.03-1.739-.375 4.031 19.03 1.737.375-4.03zm1.255-5.282l-18.455-4.92-1.06 3.91 18.456 4.919 1.059-3.909zm2.41-4.63l-16.462-9.627-2.074 3.486 16.462 9.627 2.073-3.485zm4.036-2.834L22.479 3.952l-3.372 2.28 10.768 15.656 3.372-2.28z" fill="#f95700" class="color000 svgShape"></path><path d="M28.332 28.278v16.546H3.265V28.278H0V48h31.58V28.278z" fill="#f95700" class="color000 svgShape"></path></g></svg></g></svg>